<svg xmlns="http://www.w3.org/2000/svg" viewBox="0 0 512 512" role="img" aria-labelledby="title desc">
  <title id="title">CloakCode icon concept - Shielded Phone Prompt Outline Mono</title>
  <desc id="desc">A single-color outline version of the shielded phone bridge and terminal prompt icon.</desc>
  <defs>
    <filter id="soft" x="-20%" y="-20%" width="140%" height="150%">
      <feDropShadow dx="0" dy="8" stdDeviation="10" flood-color="#000" flood-opacity="0.28"/>
    </filter>
  </defs>
  <rect width="512" height="512" rx="96" fill="none"/>
  <g fill="none" stroke="#dffbff" stroke-linecap="round" stroke-linejoin="round" filter="url(#soft)">
    <path d="M256 62 390 116v139c0 91-54 152-134 196-80-44-134-105-134-196V116L256 62Z" stroke-width="18"/>
    <path d="M352 137 256 100 160 137" stroke-width="10"/>
    <path d="M256 112c-48 0-88 33-100 80l-27 116c18 57 61 103 127 141 66-38 109-84 127-141l-27-116c-12-47-52-80-100-80Z" stroke-width="9" opacity="0.72"/>
    <g transform="translate(21.2 21.7) scale(0.92)">
      <rect x="156" y="218" width="68" height="104" rx="17" stroke-width="16"/>
      <path d="M181 298h18" stroke-width="8"/>
      <circle cx="247" cy="270" r="6" fill="#dffbff" stroke="none"/>
      <circle cx="272" cy="270" r="6" fill="#dffbff" stroke="none"/>
      <path d="M270 222 321 273 270 324" stroke-width="30"/>
      <path d="M340 322h34" stroke-width="24"/>
    </g>
  </g>
</svg>
